<svg width="45" height="47" viewBox="0 0 45 47" fill="none" xmlns="http://www.w3.org/2000/svg">
<g id="add_photo_alternate_outlined 1" clip-path="url(#clip0_172_3381)">
<path id="Vector" d="M33.75 38.8337H7.5V12.0003H24.375V8.16699H7.5C5.4375 8.16699 3.75 9.89199 3.75 12.0003V38.8337C3.75 40.942 5.4375 42.667 7.5 42.667H33.75C35.8125 42.667 37.5 40.942 37.5 38.8337V21.5837H33.75V38.8337ZM19.1438 32.7578L15.4688 28.2345L10.3125 35.0003H30.9375L24.3 25.9728L19.1438 32.7578ZM37.5 8.16699V2.41699H33.75V8.16699H28.125C28.1437 8.18616 28.125 12.0003 28.125 12.0003H33.75V17.7312C33.7687 17.7503 37.5 17.7312 37.5 17.7312V12.0003H43.125V8.16699H37.5Z" fill="#6D6D6D"/>
</g>
<defs>
<clipPath id="clip0_172_3381">
<rect width="45" height="46" fill="white" transform="translate(0 0.5)"/>
</clipPath>
</defs>
</svg>
