<svg width="27" height="26" viewBox="0 0 27 26" fill="none" xmlns="http://www.w3.org/2000/svg">
<g id="Component 2" clip-path="url(#clip0_376_1132)">
<path id="Vector" d="M13.4828 7.47576C10.5351 7.47576 8.14275 9.86808 8.14275 12.8158C8.14275 15.7635 10.5351 18.1558 13.4828 18.1558C16.4305 18.1558 18.8228 15.7635 18.8228 12.8158C18.8228 9.86808 16.4305 7.47576 13.4828 7.47576ZM13.4828 2.13574C7.58739 2.13574 2.80273 6.9204 2.80273 12.8158C2.80273 18.7111 7.58739 23.4958 13.4828 23.4958C19.3781 23.4958 24.1628 18.7111 24.1628 12.8158C24.1628 6.9204 19.3781 2.13574 13.4828 2.13574ZM13.4828 21.3598C8.76219 21.3598 4.93874 17.5363 4.93874 12.8158C4.93874 8.0952 8.76219 4.27175 13.4828 4.27175C18.2033 4.27175 22.0268 8.0952 22.0268 12.8158C22.0268 17.5363 18.2033 21.3598 13.4828 21.3598Z" fill="#28519E"/>
</g>
<defs>
<clipPath id="clip0_376_1132">
<rect width="25.6321" height="25.6321" fill="white" transform="translate(0.666016)"/>
</clipPath>
</defs>
</svg>
