<svg width="22" height="23" viewBox="0 0 22 23" fill="none" xmlns="http://www.w3.org/2000/svg">
<g id="upload">
<path id="Vector" d="M12.8327 2.33301H5.49935C5.01312 2.33301 4.5468 2.52616 4.20299 2.86998C3.85917 3.2138 3.66602 3.68011 3.66602 4.16634V18.833C3.66602 19.3192 3.85917 19.7856 4.20299 20.1294C4.5468 20.4732 5.01312 20.6663 5.49935 20.6663H16.4993C16.9856 20.6663 17.4519 20.4732 17.7957 20.1294C18.1395 19.7856 18.3327 19.3192 18.3327 18.833V7.83301L12.8327 2.33301ZM12.3743 15.1663V17.9163H9.62435V15.1663H7.33268L10.9993 11.4997L14.666 15.1663H12.3743ZM11.916 8.74967V3.70801L16.9577 8.74967H11.916Z" fill="white"/>
</g>
</svg>
